# xmcd CD database file
# Copyright (C) 1993-1998 Ti Kan
#
# Track frame offsets:
#	182
#	14407
#	32630
#	45595
#	61567
#	73382
#	87267
#	103585
#	116785
#	130207
#	142550
#	153497
#
# Disc length: 2170 seconds
#
# Revision: 1
# Processed by: cddbd v1.4b41PL1 Copyright (c) Steve Scherf et al.
# Submitted via: NotifyCDPlayer(CDDB) 1.51.3
#
DISCID=9a08780c
DTITLE=Cristy Lane - Country Classics Vol. 1
DYEAR=1900
DGENRE=
TTITLE0=One Day At A Time
TTITLE1=For The Good Times
TTITLE2=Always On My Mind
TTITLE3=You Needed Me
TTITLE4=She'll Have To Go
TTITLE5=Shake Me I Rattle
TTITLE6=Danny Boy
TTITLE7=I Can't Stop Loving You
TTITLE8=There Goes My Everything
TTITLE9=Tennessee Waltz
TTITLE10=Release Me
TTITLE11=Amazing Grace
EXTD=
EXTT0=
EXTT1=
EXTT2=
EXTT3=
EXTT4=
EXTT5=
EXTT6=
EXTT7=
EXTT8=
EXTT9=
EXTT10=
EXTT11=
PLAYORDER=
